<mxfile host="65bd71144e">
    <diagram id="ap-yruTyFhgASpm4mz4V" name="Page-1">
        <mxGraphModel dx="1171" dy="644" grid="1" gridSize="10" guides="1" tooltips="1" connect="1" arrows="1" fold="1" page="1" pageScale="1" pageWidth="850" pageHeight="1100" math="0" shadow="0">
            <root>
                <mxCell id="0"/>
                <mxCell id="1" parent="0"/>
                <mxCell id="2" value="" style="whiteSpace=wrap;html=1;aspect=fixed;" vertex="1" parent="1">
                    <mxGeometry x="540" y="110" width="860" height="860" as="geometry"/>
                </mxCell>
                <mxCell id="3" value="supplier" style="shape=umlActor;verticalLabelPosition=bottom;verticalAlign=top;html=1;outlineConnect=0;" vertex="1" parent="1">
                    <mxGeometry x="460" y="170" width="30" height="60" as="geometry"/>
                </mxCell>
                <mxCell id="4" value="custmer" style="shape=umlActor;verticalLabelPosition=bottom;verticalAlign=top;html=1;outlineConnect=0;" vertex="1" parent="1">
                    <mxGeometry x="460" y="580" width="30" height="60" as="geometry"/>
                </mxCell>
                <mxCell id="6" value="add item" style="ellipse;whiteSpace=wrap;html=1;" vertex="1" parent="1">
                    <mxGeometry x="670" y="130" width="80" height="60" as="geometry"/>
                </mxCell>
                <mxCell id="7" value="update" style="ellipse;whiteSpace=wrap;html=1;" vertex="1" parent="1">
                    <mxGeometry x="680" y="200" width="80" height="60" as="geometry"/>
                </mxCell>
                <mxCell id="8" value="login" style="ellipse;whiteSpace=wrap;html=1;" vertex="1" parent="1">
                    <mxGeometry x="670" y="360" width="80" height="60" as="geometry"/>
                </mxCell>
                <mxCell id="9" value="set availabe time" style="ellipse;whiteSpace=wrap;html=1;" vertex="1" parent="1">
                    <mxGeometry x="690" y="280" width="80" height="60" as="geometry"/>
                </mxCell>
                <mxCell id="10" value="set availabe time" style="ellipse;whiteSpace=wrap;html=1;" vertex="1" parent="1">
                    <mxGeometry x="810" y="300" width="80" height="60" as="geometry"/>
                </mxCell>
                <mxCell id="11" value="set minimum price for each order" style="ellipse;whiteSpace=wrap;html=1;" vertex="1" parent="1">
                    <mxGeometry x="800" y="210" width="80" height="60" as="geometry"/>
                </mxCell>
                <mxCell id="12" value="add offers&amp;nbsp;" style="ellipse;whiteSpace=wrap;html=1;" vertex="1" parent="1">
                    <mxGeometry x="790" y="140" width="80" height="60" as="geometry"/>
                </mxCell>
                <mxCell id="13" value="sign up" style="ellipse;whiteSpace=wrap;html=1;" vertex="1" parent="1">
                    <mxGeometry x="720" y="580" width="80" height="60" as="geometry"/>
                </mxCell>
                <mxCell id="14" value="purchers" style="ellipse;whiteSpace=wrap;html=1;" vertex="1" parent="1">
                    <mxGeometry x="590" y="460" width="80" height="60" as="geometry"/>
                </mxCell>
                <mxCell id="15" value="login" style="ellipse;whiteSpace=wrap;html=1;" vertex="1" parent="1">
                    <mxGeometry x="720" y="480" width="80" height="60" as="geometry"/>
                </mxCell>
                <mxCell id="16" value="minmum recipt for buy for each suppliers" style="ellipse;whiteSpace=wrap;html=1;" vertex="1" parent="1">
                    <mxGeometry x="580" y="540" width="110" height="90" as="geometry"/>
                </mxCell>
                <mxCell id="18" value="make order" style="ellipse;whiteSpace=wrap;html=1;" vertex="1" parent="1">
                    <mxGeometry x="730" y="680" width="80" height="60" as="geometry"/>
                </mxCell>
                <mxCell id="19" value="show offers" style="ellipse;whiteSpace=wrap;html=1;" vertex="1" parent="1">
                    <mxGeometry x="620" y="650" width="80" height="60" as="geometry"/>
                </mxCell>
                <mxCell id="20" value="maxmum weight&amp;nbsp;" style="ellipse;whiteSpace=wrap;html=1;" vertex="1" parent="1">
                    <mxGeometry x="620" y="750" width="80" height="60" as="geometry"/>
                </mxCell>
                <mxCell id="21" value="role" style="ellipse;whiteSpace=wrap;html=1;" vertex="1" parent="1">
                    <mxGeometry x="780" y="370" width="80" height="60" as="geometry"/>
                </mxCell>
            </root>
        </mxGraphModel>
    </diagram>
</mxfile>